<?xml version="1.0" standalone="no"?>
<!DOCTYPE svg PUBLIC "-//W3C//DTD SVG 20010904//EN"
 "http://www.w3.org/TR/2001/REC-SVG-20010904/DTD/svg10.dtd">
<svg version="1.0" xmlns="http://www.w3.org/2000/svg"
 width="149.000000pt" height="172.000000pt" viewBox="0 0 149.000000 172.000000"
 preserveAspectRatio="xMidYMid meet">
<metadata>
Created by potrace 1.16, written by Peter Selinger 2001-2019
</metadata>
<g transform="translate(0.000000,172.000000) scale(0.100000,-0.100000)"
fill="#000000" stroke="none">
<path d="M626 1667 c-97 -55 -97 -53 -3 -71 l39 -7 -7 40 c-9 56 11 54 22 -1
l9 -43 90 -16 c58 -11 106 -27 137 -45 45 -28 47 -30 47 -77 l0 -47 -67 -44
c-38 -24 -92 -49 -120 -56 -62 -14 -59 3 -35 -195 l17 -140 154 -3 154 -3 38
-30 c22 -17 39 -38 39 -47 0 -9 -40 -56 -90 -105 -73 -71 -90 -93 -90 -117 0
-41 29 -54 135 -60 87 -5 90 -6 93 -30 3 -24 -4 -27 -180 -86 l-183 -61 4 -59
c2 -32 4 -60 6 -62 1 -1 53 -5 116 -9 63 -3 122 -10 132 -15 11 -6 17 -20 17
-44 0 -21 -4 -33 -10 -29 -5 3 -10 17 -10 30 0 29 -8 32 -144 40 l-99 6 6 -48
c4 -26 9 -76 13 -111 4 -40 11 -62 18 -60 7 2 148 82 314 178 l302 174 0 446
0 446 -359 207 c-249 144 -367 207 -387 206 -16 0 -69 -23 -118 -52z"/>
<path d="M262 1457 l-262 -152 0 -445 0 -445 359 -208 c223 -128 370 -207 387
-207 14 0 43 9 63 20 l36 21 -14 119 -14 120 -108 0 c-120 0 -159 11 -159 45
0 32 12 38 130 75 58 17 108 35 111 38 4 4 -6 111 -22 237 -15 127 -28 236
-29 243 0 10 -46 12 -213 11 l-213 -2 -84 44 c-46 24 -92 56 -103 71 l-19 26
28 39 c15 21 30 41 34 45 3 4 119 39 259 77 139 38 255 72 258 75 6 6 -18 242
-27 256 -3 5 -33 15 -66 21 -32 6 -61 15 -64 19 -3 5 -123 -60 -268 -143z"/>
<path d="M699 1438 c8 -68 15 -124 16 -126 8 -10 110 28 163 61 56 35 62 42
62 73 0 29 -6 38 -42 60 -24 15 -74 33 -113 41 -111 21 -103 31 -86 -109z"/>
<path d="M440 1211 c-238 -66 -245 -69 -274 -105 -39 -48 -32 -59 74 -115 l84
-44 205 2 c113 1 206 3 206 4 4 7 -39 327 -44 326 -3 0 -116 -31 -251 -68z"/>
<path d="M760 928 c2 -45 57 -469 62 -474 9 -8 348 105 348 117 0 5 -36 9 -80
9 -55 0 -91 5 -116 17 -35 17 -36 19 -32 65 5 43 11 52 94 132 l89 87 -35 29
-35 29 -147 1 c-112 0 -148 -3 -148 -12z"/>
<path d="M678 376 c-53 -17 -100 -35 -105 -39 -4 -5 1 -15 11 -23 14 -10 50
-14 123 -14 l103 0 0 33 c0 45 -10 77 -24 76 -6 -1 -55 -15 -108 -33z"/>
</g>
</svg>
